<svg height="512" viewBox="0 0 64 64" width="512" xmlns="http://www.w3.org/2000/svg"><g id="Filled_outline" data-name="Filled outline"><path d="m36 33h-26a4 4 0 0 0 -4 4v6h6v18h24v-22h6v-6z" fill="#55b56a"/><path d="m14 13h20v16h-20z" fill="#ffd782"/><path d="m46 27v6h-4v6h4 6v-6-6z" fill="#ffd782"/><path d="m18 21h12v8h-12z" fill="#cb2e5c"/><path d="m30 7v-4l-4 4h-12v6h20v-6-4z" fill="#394d5c"/><path d="m18 33h12v6h-12z" fill="#ffd782"/><path d="m40 19h18v4h-18z" fill="#ad6327"/><path d="m42 15h14v4h-14z" fill="#66342e"/><path d="m58 15h-18v-4a3.663 3.663 0 0 1 4-4h10a3.663 3.663 0 0 1 4 4z" fill="#ad6327"/><path d="m12 49v-6h-6v6 6h12v-6z" fill="#ffd782"/><path d="m52 26h-6a1 1 0 0 0 -1 1v5h-35a5.006 5.006 0 0 0 -5 5v18a1 1 0 0 0 1 1h5v5a1 1 0 0 0 1 1h24a1 1 0 0 0 1-1v-21h15a1 1 0 0 0 1-1v-12a1 1 0 0 0 -1-1zm-33 8h10v4h-10zm-12 20v-10h4v5a1 1 0 0 0 1 1h5v4zm34-16h-5a1 1 0 0 0 -1 1v21h-22v-4h5a1 1 0 0 0 1-1v-6a1 1 0 0 0 -1-1h-5v-9a1 1 0 0 0 -2 0v3h-4v-5a3 3 0 0 1 3-3h7v5a1 1 0 0 0 1 1h12a1 1 0 0 0 1-1v-5h10zm10 0h-8v-4h3a1 1 0 0 0 1-1v-5h4z"/><path d="m30.383 2.076a1 1 0 0 0 -1.09.217l-3.707 3.707h-11.586a1 1 0 0 0 -1 1v22a1 1 0 0 0 1 1h20a1 1 0 0 0 1-1v-26a1 1 0 0 0 -1.707-.707l-2.293 2.293v-1.586a1 1 0 0 0 -.617-.924zm-1.383 25.924h-10v-6h10zm4 0h-2v-7a1 1 0 0 0 -1-1h-12a1 1 0 0 0 -1 1v7h-2v-14h18zm0-22.586v6.586h-18v-4h11a1 1 0 0 0 .707-.293l2.293-2.293v1.586a1 1 0 0 0 1.707.707z"/><path d="m19 16h2v2h-2z"/><path d="m27 16h2v2h-2z"/><path d="m54 6h-10c-3.687 0-5 2.583-5 5v4a1 1 0 0 0 1 1h1v2h-1a1 1 0 0 0 -1 1v4a1 1 0 0 0 1 1h18a1 1 0 0 0 1-1v-4a1 1 0 0 0 -1-1h-1v-2h1a1 1 0 0 0 1-1v-4c0-2.417-1.313-5-5-5zm3 16h-16v-2h16zm-14-4v-2h12v2zm14-4h-16v-3a2.689 2.689 0 0 1 3-3h10a2.689 2.689 0 0 1 3 3z"/><path d="m22 24h4v2h-4z"/></g></svg>